<?xml version="1.0" encoding="UTF-8"?>
<svg id="Capa_1" data-name="Capa 1" xmlns="http://www.w3.org/2000/svg" viewBox="0 0 2205.7 1272.32">
  <defs>
    <style>
      .cls-1 {
        fill: #283481;
      }

      .cls-2 {
        fill: #171516;
      }
    </style>
  </defs>
  <path class="cls-1" d="M1307.5,858.34c135.52-100.28,183.83-275.05,115.47-428.99-65.6-147.73-227.55-234.14-391.27-200.2-154.08,31.94-272.92,166.16-279.48,330.53-4.68,117.27,49.64,227.25,148.09,299.65l-184.79,11.76c18.07-18.37,22.77-36.87,10.85-55.77-29.6-46.92-51.28-97.34-62.15-151.8-3.52-17.6-18.47-25.36-35.04-26.55l-59.43-4.25c-22.28-1.59-40.63-12.56-40.45-37.69l.35-48.26c.08-10.81,10.57-30.3,22.67-31.49l84.71-8.32c12.65-1.24,24.45-11.03,27.08-23.71,11.5-55.32,31.5-105.29,62.13-152.52,9-13.89,9.41-32.52-1.72-45.45l-37.66-43.74c-10.24-11.9-24.95-28-13.66-45.59,10.02-15.61,48.29-56.56,64.5-56.8,10.72-.15,20.76,5.53,28.47,12.14l49.72,42.63c12.93,11.09,27.98,12.06,42.81,2.86,44.87-27.82,93.33-50.71,145.42-60.79,24.06-4.66,34.29-19.1,35.77-43.29l3.5-56.95C1044.76,13.31,1057.56.03,1079.58.02L1127.66,0c19.19,0,32.3,10.91,34.04,30.35l7.27,81.08c1.09,12.13,16.83,20.69,27.51,22.95,56.21,11.89,106.15,33.7,153.72,64.34,12.39,7.98,28.13,5.41,38.55-3.32l60.31-50.53c11.4-9.55,29.96-6.16,40.17,3.95l36.89,36.53c14.87,14.72,12.54,32.74-.13,47.71l-46.86,55.4c-11.48,13.57-7.21,29.26,1.22,42.5,30.13,47.33,50.04,97.89,62.43,152.46,3.08,13.56,14.23,22.56,27.73,23.89l83.26,8.21c14.68,1.45,22.66,23.17,22.64,34.44l-.11,45.87c-.04,16.01-10.09,33.98-28.57,35.39l-69.54,5.32c-17.06,1.3-31.86,7.57-35.84,25.96-12.1,55.9-33.78,108.47-64.55,156.57-11.1,17.34-3.63,33.51,10.83,50.62l-181.12-11.36Z"/>
  <path class="cls-2" d="M929.25,780.31c27.44,4.45-.38-26.19,25.45-25.2l-.77,105.33c-61.02-27.51-104.71-76.74-136.94-131.25,9.89-5.02,12.03-23.16,4.97-27.27-2.79-1.63-9.45,6.65-11.75,10.81-5.82-9.14-14.95-25.84-14.94-39.54l.12-203.54,110.61-.61.52-154.39,148.58-.15.12,272,34.14,3.62-77.9,60.06c-3.13,2.41-15.18.57-18.28,1.2-3.83.77-2.01,14.16-4.81,17.21l-101.25,79c-.54,19.2,35.65.52,36.32,16.37.34,8.14,2.11,15.76,5.81,16.36ZM925.27,356.73c3.93,3.56,17.82,1.62,17.54-2.8-.38-5.94-1.22-14.36-3.04-18.46-1.52-3.42-13.98-2.06-15.72,1.25-2.3,4.38-2.46,16.69,1.21,20.02ZM991.85,356.64c1.17,3.82,17.44,1.89,17.04-2.08l-1.8-17.87c-.34-3.35-7.18-1.77-14.76-2.12-1.43,3.58-2.14,16.68-.48,22.07ZM1042.74,349.17c-1.07-6.93-1.95-14.04-5.02-14.13l-11.72-.33c-2.47-.07-2.67,10.85-2.88,14.75-.2,3.66,6.06,9.4,10.42,10.05,3.85.57,9.8-6.48,9.2-10.33ZM923.84,407.56c.92,3.91,15.33,5.89,16.65,2.15,1.32-3.74,1.76-12.72,1.71-18.38-.04-4.31-16.27-4.22-18.11-.33-1.85,3.9-1.52,11.11-.24,16.55ZM1010.2,404.11c-.9-12.39-3.8-18.2-9.7-17.06-3.16.61-10.44,5.11-10.82,8.12-.77,6.14.27,14.83,4.22,15.47,6.25,1.03,16.62-1.98,16.29-6.53ZM942.66,455.84c.2-6.02-.75-15.75-4.38-15.74-3.62.01-14.09-.22-14.49,3.4-.32,2.89-.59,8.96-.68,13.43-.06,3.13,7.9,7.48,11.03,7.84,3.15.36,8.41-5.44,8.52-8.93ZM956.05,460.36c1.96,3,13.89,6.09,16.51,2,2.25-3.51,2.91-13.75,2.53-17.9-.38-4.15-12.12-4.54-16.63-3.45l-2.41,19.35ZM995.03,463.31c9.4,2.36,14-4.69,15.05-10,2.35-11.95-7.19-15.36-16.24-12.19-5.82,2.04-4.65,20.72,1.2,22.19ZM976.41,508.03c-.7-7.49-1.58-15.47-4.83-14.98l-14.44,2.16c-2.63.39-.91,7.94-.81,12.82.09,3.92,6.04,8.94,10.61,9.6,4.64.66,9.91-4.87,9.46-9.59ZM1043.27,510.66c-.26-11.65-2.93-19.6-9.6-18.8-4.85.59-11.82,5.56-11.35,9.59.95,8.18,2.92,14.92,6.65,15.57,4,.69,14.41-1.8,14.31-6.36ZM925.77,567.3c3.51,4.27,19.13,1.01,17.73-5.26-.87-3.9-2.72-10.99-4.3-16.09-1.17-3.77-11.81-.45-14.74,2.2-3.53,3.19-1.75,15.43,1.31,19.15ZM991.73,567.16c1.27,3.51,16.19,3.27,16.31-.45l.56-16.74c.12-3.66-8.58-5.17-15.67-5.27-2.52,3.46-3.12,17.16-1.2,22.46ZM1041.38,566.38c1.37-5.85.92-20.63-4.25-20.99-4.7-.33-14.58,3.39-14.11,7.31.72,6,1.54,11.74,3.16,15.32,1.3,2.86,14.47,1.46,15.19-1.64ZM848.37,599.91l-10.17.07c-2.19.02-2.97,7.89-2.41,10.08l3.24,12.63c.54,2.11,7.91,2.42,9.4.84,3.42-3.63,2.77-23.64-.05-23.62ZM899.7,609.68c.65-4.32-5.86-11.83-10.18-10.88-9.89,2.17-4.99,24.38-3.44,24.44l10.3.42c2.18.09,2.14-6.17,3.31-13.98ZM922.72,620.95c10.77.23,19.41.13,19.43-4.57.02-4.27,1.72-17.3-2.2-17.18l-17.65.53.42,21.23ZM976.58,612.39c-.25-7.38-4.08-15.7-9.59-14.93-6.24.87-10.83,5.18-11.17,12.94-.26,5.95,5.78,11.77,10.55,11.82,3.03.03,10.37-5.29,10.21-9.83ZM1023.74,617.56c.54,3.86,14.05,6.04,16.18,2.74,1.7-2.64,2.17-9.38,2.82-15.81.48-4.73-13.35-8.49-16.79-5.18-2.86,2.75-2.98,12.71-2.21,18.25ZM975.82,668.39c.23-5.66-.84-18.76-4.08-18.08l-14.32,2.98c-2.61.54-1.27,4.21-2.45,10.5l8.2,10.59c1.77,2.28,12.53-3.07,12.65-5.99ZM924.56,831.84c11.88.11,17.67-.87,17.67-4.73,0-4.96,1.7-17.43-2.2-17.3l-18.15.62,2.67,21.42Z"/>
  <path class="cls-2" d="M1193.93,774.76l-87.59-1.28-.79,81.15-37.65-.15-.45-57.82-65.33-1.1-.56,59.22c-9.76,2.52-23.09,2.92-34.39,1.45l.75-120.51,182.07-141.08,183.12,141.41.24,64.89c-8.66,10.83-18.07,19.45-31.55,29.54l-2.74-34.32-64.63-.32-.73,60.92c-14.72.12-25.91-.48-39.69-2.21l-.07-79.79ZM1143.94,641.57c-22.72,4.15-34.93,24.83-29.21,46.08,4.68,17.36,24.19,31.08,41.75,26.75,20.22-4.99,33.56-23.82,30.32-42.95-3.19-18.81-22.25-33.64-42.86-29.88Z"/>
  <path class="cls-2" d="M1240.7,545.9l-8.59-8.18c-2.12-2.02-5.3,7.95-7.11,13.74l-21.02-14.93-4.64,13.16c-3.17,9-21.53-17.71-24.69-10.73l-5.18,11.43c-4.98,11-57.86-52.63-63.4-59.22-16.99-20.23-15.58-52.05-5.39-73.53,12.91-27.21,37.4-13.05,48.92-20.23,1.91-1.19-2.63-6.51-3.63-9.53l-3.81-11.56c-.86-2.61,10.02-5.03,11.48-7.37,18.23-29.33,6.6-50.63,3.23-64.07-1.07-4.27,11.9-4.74,15.96-3.11l11.58,4.64c2.37.95,3.84-9.39,5.81-11.49l26.34-28.11c-3.98,9.95-8.12,15.42-16.46,27.24l29.19,14.33,15.86-11.31-5.62,12.57c-.95,2.11,3.83,6.05,6.12,6.45,2.28.4,6.66-1.83,8.45-3.58l18.69-18.15c53.45,34.38,98.58,78.74,124.31,141.64l-101.04-104.77-57.26,46.99c-4.01,3.29-10.49,16.49-6.02,19.06,4.88,2.81,19.94,8.52,20.26,14.47,3.62,67.53-13.22,92.52,8.21,135.51-3.2,5.17-16.09,2.86-20.56-1.39ZM1209.67,366.54l22.83-26.75c1.41-1.65,2.87-9.21.72-9.64-1.43-.28-5.89-1.17-6.88-.11l-4.76,5.04c-17,9.31-31.74,35.91-21.46,35.1,2.27-.18,8.05-1.89,9.55-3.64Z"/>
  <path class="cls-2" d="M1150.47,584.63l-205,157.62c-10.04,2.16-18.75,2.38-29.84-1.49l234.64-181.29,234.29,181.35c-11.47,3.94-20.3,3.61-30.51,1.25l-203.58-157.44Z"/>
  <path class="cls-2" d="M1415.07,660.5c-.31,17.3-9.73,34.8-18.78,51.01l-16.8-75.14,15.02-27.11.38-90.41c.38-3.37,5.6-13.33,5.67-17.1l1.07-54.46c9.81,12.32,11.94,26.18,9.21,42.41-1.45,8.65,2.36,19.34,3.18,28.8,1.57,17.97,1.31,39.78,1.51,58.05l14,9.15-13.43,17.33-1.04,57.45Z"/>
  <path class="cls-1" d="M966.36,265.96c-122.25,58.85-196.9,172.67-203.06,307.45-8.21-194.12,165.92-357.22,364.54-342.41-55.26,4.15-108.52,9.47-161.48,34.96Z"/>
  <path class="cls-2" d="M1179.65,681.91c-1.32,14.84-11.71,23.7-25.57,25.85l-.8-26.7,26.37.85Z"/>
  <path class="cls-2" d="M1146.17,681.08l.15,26.08c-14.8-.45-22.37-8.66-26.36-25.07l26.21-1.01Z"/>
  <path class="cls-2" d="M1180.62,674l-27.09-.89.14-25.63c14.03,2.43,20.91,6.71,26.95,26.52Z"/>
  <path class="cls-2" d="M1121.33,673.47c-.38-11.81,6.93-20.76,23.93-27.44l1.52,27.5-25.44-.06Z"/>
  <path class="cls-1" d="M1865.28,1272.29l-1864.28.03-.24-100.11,1863.33-.06c2.89,31.39,2.5,62.76,1.2,100.14Z"/>
  <path class="cls-2" d="M1537.78,945.03l-550.48-7.11c-245.92-3.18-486.61,11.88-733.34,31.38,97.54-28.78,197.17-39.38,298.78-54.64,366.25-42.41,733.65-42.35,1100,.02,101.85,15.43,201.6,26.13,300.02,54.44l-414.96-24.09Z"/>
  <path class="cls-2" d="M2075.07,1134.77c-10.63,1.92-27.64,2.12-38.6.22l-45.7-61.71-2.35,63.06-37.12.02-.03-131.87c11.18-.77,26.95-.81,38.41.25l46.1,62.62,2.1-63.73,36.88.54.31,130.59Z"/>
  <path class="cls-2" d="M580.89,1134.48c-10.64,2.37-27.72,2.5-39.11.02l-45.46-61.52-2.39,63.41-36.92.09.05-132.98,38.26.97,46.22,62.42,2.42-63.13,36.49.41.43,130.32Z"/>
  <path class="cls-2" d="M1047.21,1134.72c-10.65,1.98-26.8,2.18-38.59.42l-47.01-65.61-.74,67.17-36.85-.68v-132.16s36.78-.34,36.78-.34l47.53,64.13,2.08-63.95,36.37-.06.43,131.08Z"/>
  <path class="cls-2" d="M1408.42,1134.74c-12.09,1.77-33.54,3.8-44.61.41l-36.91-34.56-2.11,35.12-38.31.7.53-132.75,72.37.17c25.26.06,41.63,19.53,42.45,43.53.77,22.59-6.41,41.52-29.93,49.49l36.51,37.89ZM1361.28,1044.84c-8.45-5.12-27.11-5.84-34.35-1.71-3.27,1.86-2.35,14.47,1.24,15.63,3.59,1.15,11.34,2.3,15.09,1.94l15.77-1.52c3.32-.32,5.27-12.51,2.26-14.33Z"/>
  <path class="cls-2" d="M2170.88,1135.12c-25.66,1.57-48.03,1.55-74.22,1.72l.26-37.85,61.78-.51c2.41-.02,7.58-3.53,9.1-4.54,1.52-1-6.35-4.92-8.35-4.99l-42.49-1.45c-23.55-.8-34.5-18.92-35.25-40.03-.79-22.2,12.25-41.54,36.31-42.88,24.11-1.34,46.46-1.23,72.56-1.13l.14,36.96c-26.78.83-46.82-.73-72.94,4.5,18.33,10.06,35.58,4.55,52.66,6.98,22.83,3.24,35.43,18.06,35.27,40.93-.14,19.54-10.66,40.81-34.81,42.29Z"/>
  <path class="cls-2" d="M1178.4,1090.35c1.41,24.35-12.29,43.6-35.78,44.97-24.14,1.41-47.15,1.38-72.8,1.32l-.28-37.29c25.97-2.33,47.29,3.65,73.29-5.93-14.32-5.72-29.15-5.59-43.1-5.06-26.96,1.03-44.35-14.94-44.99-41.22-.53-21.47,11.78-42.13,35.93-42.58l72.25-1.33-.21,37.7-61.62.55c-2.11.02-9.8,3.49-8.44,4.35,1.33.84,6.16,4.24,7.76,4.31l42.77,1.82c21.18.9,33.99,16.83,35.24,38.39Z"/>
  <path class="cls-2" d="M1868.87,1004.4c39.15-4.85,69.91,23.05,74.11,56.61,4.67,37.39-21.06,70.08-58.28,74.81-33.9,4.3-67.09-20.24-73.22-54.53-6.28-35.15,18.37-72.06,57.39-76.9ZM1873.01,1041.8c-19.89,3.24-27.11,19.66-23.42,35.14,3.29,13.8,17.98,23.19,31.67,21.12,15.97-2.41,26.71-16.73,23.92-32.69-2.33-13.33-15.46-26.29-32.17-23.57Z"/>
  <path class="cls-2" d="M841.47,1004.56c39.01-5.55,70.22,23.32,74.62,56.29,5.06,37.98-20.91,69.48-56.65,74.6-35.4,5.07-68.46-19.66-74.3-53.02-6.52-37.27,16.48-72.2,56.33-77.87ZM842.7,1042.31c-17.99,4.77-24.77,22.5-18.69,38.43,5.47,14.31,20.21,20.6,34.62,15.98,15.53-4.98,23.63-18.76,19.02-35.58-3.49-12.74-19.45-22.94-34.95-18.83Z"/>
  <path class="cls-2" d="M97.54,1117.54l-51.71-.52-9.3,20.04-36.54-1.8,47.29-131.15,47.48-.54,47.37,131.41-36.2,2.05-8.4-19.49ZM84.66,1079.33l-13.67-32.62-12.02,32.09,25.69.53Z"/>
  <path class="cls-2" d="M1485.87,1003.88l37.6.54c-1.97,52.49,15.6,129.54-54.52,131.97-30.19,1.04-57.4-16.85-58.04-49.75l-1.6-82.37,37.13-.65,1.61,76.66c.19,8.85,12.07,18.84,19.09,18.52,9.46-.44,18.48-10.35,18.51-20.67l.21-74.24Z"/>
  <path class="cls-2" d="M1596.71,1098.39l42.97.32.45,37.59c-18.33.14-32.89.5-50-.83-34.24-2.66-58.96-32.2-59.85-64.06-.93-33.2,24.44-64.08,59.88-66.95,16.99-1.38,32.18-1.09,49.73-1.12l.12,37.19-43.42.76c-15.33.27-27.91,13.42-28.41,27.35-.54,15.16,11.66,29.63,28.53,29.75Z"/>
  <path class="cls-2" d="M739.32,1097.66l46.59,1.97-.06,36.78c-17.92.11-31.86.4-48.24-.68-34.53-2.27-60.1-31.92-60.81-64.06-.72-32.29,23.28-63.32,57.91-67.05,16.79-1.81,32.56-1.24,50.89-1.27l.21,37.12-44.79,1.13c-14.63.37-26.28,13.99-26.52,26.45-.23,12.05,8.65,28.92,24.83,29.6Z"/>
  <polygon class="cls-2" points="1722.75 1135.93 1684.76 1136.19 1684.41 1042.45 1651.68 1039.66 1651.99 1003.48 1754.63 1003.47 1755.53 1040.28 1722.71 1041.18 1722.75 1135.93"/>
  <polygon class="cls-2" points="1244.73 1136.62 1206.8 1136.33 1206.09 1041.44 1173.84 1040.22 1174.29 1003.46 1277.71 1003.33 1277.65 1040.23 1245.06 1041.01 1244.73 1136.62"/>
  <polygon class="cls-2" points="305.65 1099.06 305.23 1136.33 229.56 1136.72 229.11 1004.96 267.28 1003.63 267.88 1098.01 305.65 1099.06"/>
  <polygon class="cls-2" points="221.15 1098.76 220.29 1136.52 145.06 1136.37 144.93 1004.36 182.92 1004.04 183.17 1098.54 221.15 1098.76"/>
  <polygon class="cls-2" points="1803.44 1135.2 1764.76 1136.72 1764.75 1004.25 1802.29 1003.85 1803.44 1135.2"/>
  <polygon class="cls-2" points="438.9 1136.05 401.14 1136.18 400.94 1004.29 438.63 1003.97 438.9 1136.05"/>
  <path class="cls-2" d="M2064.43,1254.5c-7.33-3.15-27.35-2.76-35.98-.66-3.66,6.1-5.73,12.54-9.29,13.45-3.57.92-13.5-1-17.08-2.45l35.26-75.66c.96-2.07,4.27-5.93,5.91-7.43,2.19-2.01,10.96,2.67,12.37,5.73l35.06,76.2c-1.79,2.01-10.52,4.85-13.97,4.67-3.85-.2-6.14-5.33-12.28-13.83ZM2059.06,1238.32l-12-26.79-12,24.62,24,2.18Z"/>
  <path class="cls-2" d="M1951.24,1262.37c-16.99,13.14-44.32,5-54.61-5.33-2.2-2.21-.02-13.53,2.77-13.62,16.47-.52-.42,1.52,30.64,9.05,4.09.99,11.03-8.5,10.26-13.53l-30.29-12.78c-5.09-2.15-12.94-11.79-13.78-17.2-1.03-6.66,4.88-17.73,11.25-22.6,13.53-10.34,39.11-4.33,49.02,4.17,2.3,1.97.1,10.69-2.44,11.61-3.15,1.13-10.49.24-13.71-1.54-8.92-4.92-22.81-7.08-23.04,7.69l27.07,11.81c6.87,3,15.45,11.23,17.15,17.37,2.02,7.29-2.9,19.17-10.3,24.89Z"/>
  <path class="cls-2" d="M2194,1258.34c-17.45,18.13-47.18,10.54-61.09-2.39,1.29-37.36,33.24,19.18,47.85-15.94l-31.77-13.36c-5.66-2.38-13.48-12.07-14.37-17.72-.99-6.28,3.92-16.9,9.19-21.34,14.39-12.1,40.72-6.44,51.27,3.55,2.57,2.44-1.73,13.01-4.82,12.25l-13.76-3.4-14.03-3.24c-3.02-.7-5.93,7.65-6.81,12.32l35.1,15.05c9.65,4.14,11.06,26.11,3.25,34.22Z"/>
  <polygon class="cls-2" points="666.48 1088.43 590.75 1088.73 591.51 1050.87 666.1 1051.05 666.48 1088.43"/>
  <polygon class="cls-2" points="391.28 1088.68 316.01 1088.59 315.35 1051.07 390.25 1050.69 391.28 1088.68"/>
  <path class="cls-2" d="M2101.16,1247.45c3.15-3.46,17.18-1.7,18.99,2.35,1.81,4.06,1.18,12.35-1.92,15.53-3.1,3.18-13.42,2.35-17.45.34-3.97-1.99-3.98-13.44.38-18.22Z"/>
  <path class="cls-2" d="M1977.56,1246.35c4.92-2.01,14.67-1,16.69,2.39,2.43,4.07,1.59,14.93-2.3,17.64-3.89,2.7-13.66,1.51-17.18-1.67-3.52-3.17-1.61-16.57,2.79-18.36Z"/>
</svg>